<svg width="35" height="47" viewBox="0 0 35 47" fill="none" xmlns="http://www.w3.org/2000/svg">
<path d="M34.9773 1.05954C34.9172 0.921193 34.758 0.860127 34.6212 0.920653C34.1328 1.13952 33.4266 1.81774 32.8449 2.43921C33.2862 1.71128 33.7505 0.846076 33.8315 0.312149C33.8534 0.164076 33.7532 0.0251896 33.6057 0.0030327C33.4583 -0.0191242 33.321 0.0824733 33.299 0.231087C33.1881 0.96929 32.017 2.77103 31.5822 3.39466L31.1141 4.01343C30.5115 3.88482 29.3169 3.89941 27.6966 5.24017C25.3079 7.21592 21.9488 8.22108 23.2512 10.4195C23.8297 11.3976 24.338 11.8478 24.7246 12.0467C24.2667 11.9624 23.7981 11.8083 23.3413 11.5727C22.8399 11.3231 22.3306 11.0264 21.818 10.6702C21.307 10.3098 20.7907 9.90663 20.2636 9.46674C19.7258 9.00901 19.1736 8.53939 18.6085 8.0595C17.9849 7.55314 17.2879 7.01542 16.4847 6.5939C15.6885 6.16103 14.7898 5.81679 13.8306 5.61413C12.8714 5.4104 11.8586 5.3596 10.8704 5.44336C9.87691 5.52226 8.91287 5.74437 7.98905 6.02971C7.52794 6.17346 7.00839 6.35612 6.62824 6.50419C6.21432 6.66362 5.79664 6.82412 5.37735 6.9857L5.05458 7.11L4.70446 7.25483C4.5865 7.30563 4.47337 7.34886 4.35112 7.40614L3.97687 7.59042C3.47877 7.83469 2.93777 8.17461 2.42573 8.60316C2.30294 8.69124 2.15174 8.85337 2.01448 8.99441C1.87615 9.14087 1.73996 9.29002 1.60914 9.44296C1.52978 9.53321 1.51477 9.56077 1.47617 9.61211L1.37483 9.75261L1.16948 10.0342C1.12122 10.1098 1.24025 9.91474 1.05527 10.2125L1.02149 10.2709L0.955544 10.3881L0.826863 10.6259C0.751263 10.7821 0.679952 10.9404 0.61025 11.0988C0.550735 11.255 0.488539 11.4133 0.434386 11.5711C0.38613 11.7278 0.33573 11.8856 0.2923 12.044C-0.0369099 13.3042 -0.10554 14.5753 0.176487 15.9409C0.217236 16.1122 0.260666 16.2851 0.306776 16.4564C0.363611 16.6337 0.417227 16.8001 0.486394 16.986L0.622582 17.3043L0.696037 17.4616L0.733033 17.54L0.754479 17.5821L0.838659 17.7432L0.881016 17.8231C0.872437 17.8118 1.00863 18.0382 0.973238 17.9766L1.01881 18.0447C1.49493 18.8034 2.1244 19.3552 2.72759 19.76C3.95703 20.5695 5.13071 20.9197 6.24542 21.1888C6.80303 21.318 7.34725 21.4158 7.87699 21.5012C8.40726 21.5882 8.92091 21.6514 9.38095 21.7298C10.3273 21.8811 11.2785 22.0329 12.2345 22.1853C12.7052 22.2448 13.2103 22.3577 13.7068 22.4566C14.2054 22.5571 14.7035 22.6577 15.2043 22.7587C15.6788 22.8555 16.1539 22.9516 16.6305 23.0484C17.1286 23.1646 17.6278 23.2818 18.1281 23.398C18.6117 23.5137 19.1125 23.6282 19.5725 23.7498L20.2765 23.9282C20.507 23.9903 20.7253 24.059 20.951 24.1243C21.8571 24.38 22.6721 24.7064 23.4587 25.0636C23.5675 25.1046 23.6329 25.1533 23.7171 25.1976L23.96 25.3305L24.2056 25.4592L24.3283 25.5224C24.3503 25.5337 24.368 25.5397 24.3932 25.5564L24.4736 25.6116L25.1165 26.0509L25.4355 26.2682L25.4693 26.2946L25.5953 26.393C25.7739 26.5249 25.9047 26.6464 26.0554 26.7697C26.1717 26.8869 26.3143 27.0064 26.3953 27.1107C26.5057 27.2193 26.5561 27.3144 26.6339 27.4041C26.6714 27.4825 26.7787 27.6797 26.7787 27.6797L26.8301 27.8689L26.8435 27.9218C26.8478 27.9494 26.8532 27.9769 26.8569 28.0104C26.858 28.0715 26.8677 28.1234 26.8682 28.1909C26.8752 28.4579 26.8457 28.8011 26.7754 29.1523C26.6355 29.8522 26.3502 30.6163 26.0398 31.1248L25.984 31.2178C25.9674 31.2443 25.9674 31.2389 25.9599 31.2535C25.9551 31.2632 25.8248 31.4307 25.8248 31.4307L25.7889 31.4729C25.7154 31.5193 25.5203 31.5982 25.2784 31.6512C24.6972 31.7852 23.8806 31.7917 23.0866 31.7052C22.2871 31.6209 21.4641 31.4372 20.7687 31.1783C20.5923 31.1162 20.4331 31.0454 20.2835 30.9768C20.2116 30.9422 20.1398 30.9071 20.077 30.8736L19.9864 30.8238C19.95 30.8038 19.9618 30.8082 19.9457 30.8017L19.9301 30.7963C19.9312 30.7995 19.9205 30.792 19.906 30.7806L19.869 30.753L19.7934 30.6968L19.7559 30.6693C19.7618 30.6758 19.7473 30.6639 19.7371 30.6558L19.5151 30.4763C19.3387 30.3358 19.1607 30.1861 18.9822 30.0354C18.2353 29.3928 17.4948 28.7541 16.7592 28.1218C15.2048 26.8005 13.3819 25.424 11.1203 24.6966L10.6779 24.554L10.3332 24.4686L9.9954 24.3848L9.87691 24.3546L9.82115 24.3437L9.70909 24.3227L9.48818 24.2821C8.89464 24.1795 8.29413 24.1297 7.68665 24.1519C6.48079 24.1827 5.21811 24.4821 4.09429 25.1738C3.52917 25.5051 3.02731 25.9699 2.59945 26.4687C2.39463 26.728 2.19678 26.9901 2.0429 27.2739C1.87776 27.5316 1.72763 27.8829 1.59359 28.2109L1.5448 28.3352L1.52121 28.4141L1.4751 28.5703L1.35124 28.9978C1.29333 29.3134 1.21452 29.6301 1.20701 29.9435C1.19789 30.0997 1.18824 30.2569 1.18556 30.412L1.21183 30.8681C1.2188 31.0211 1.23811 31.1692 1.26545 31.3124L1.34159 31.7442C1.60646 32.865 2.09545 33.8053 2.66218 34.6143C3.23856 35.4184 3.90234 36.1004 4.64762 36.6727C4.82992 36.8154 5.07388 36.9797 5.26529 37.1056L5.51354 37.252L5.68833 37.3542L5.84436 37.4342C6.26418 37.6536 6.63628 37.8006 6.9848 37.9438C7.67914 38.2237 8.27965 38.4734 8.69947 38.7436C8.8185 38.809 8.88445 38.8808 8.98096 38.9441L9.08176 39.0424L9.13538 39.09L9.17077 39.1386C9.29302 39.2602 9.32519 39.3953 9.38685 39.5515C9.38845 39.5812 9.42062 39.7731 9.42062 39.7731L9.39971 40.0222L9.38899 40.146C9.38899 40.146 9.3461 40.4053 9.28122 40.4945C9.17291 40.6858 8.72467 40.8755 8.21799 40.9506C7.7097 41.0338 7.15315 41.0625 6.60143 41.0982C6.04167 41.136 5.50764 41.1646 4.90981 41.2922C4.37418 41.4294 3.87983 41.6132 3.43641 41.858C2.54529 42.3287 1.89653 43.0128 1.53193 43.6829C1.155 44.3509 1.00648 44.9778 0.939459 45.476C0.871902 45.9754 0.883697 46.3629 0.895493 46.6147C0.913187 46.8681 0.922838 47 0.922838 47C0.922838 47 0.941604 46.8703 0.977527 46.6179C1.01613 46.3666 1.09227 46.0013 1.23918 45.5468C1.38877 45.095 1.63595 44.5557 2.06327 44.0531C2.27077 43.7986 2.53457 43.5668 2.83483 43.3609C3.13079 43.1469 3.4852 42.982 3.87071 42.8502C4.253 42.714 4.68623 42.641 5.135 42.5956C5.31677 42.5892 5.56984 42.5902 5.80736 42.6054C6.05186 42.6189 6.31029 42.6421 6.57999 42.6675C7.12098 42.7162 7.70434 42.7826 8.37241 42.7691C8.70859 42.7594 9.06514 42.7351 9.46137 42.6372C9.85224 42.5367 10.2989 42.367 10.6989 42.0169C11.1042 41.6748 11.39 41.1754 11.5278 40.7058L11.5551 40.6161C11.5465 40.6739 11.5825 40.4875 11.5803 40.4956L11.5868 40.4659L11.613 40.3443L11.6645 40.1006L11.6774 40.0395C11.6811 40.0141 11.6838 39.973 11.6865 39.9411L11.6983 39.7342C11.7047 39.5958 11.7074 39.4553 11.7063 39.3164C11.6918 39.1878 11.6736 39.0586 11.6527 38.9289C11.6339 38.8003 11.6114 38.6695 11.5642 38.5436C11.5219 38.4172 11.4779 38.2891 11.4302 38.1616C11.375 38.04 11.3096 37.9259 11.2463 37.8081L11.1455 37.6341L11.0334 37.4801C10.9568 37.3785 10.8785 37.2742 10.798 37.1758C10.6324 37.0067 10.4597 36.8138 10.2844 36.6776C9.57933 36.0739 8.84906 35.7054 8.19976 35.3465C7.87699 35.1704 7.56386 34.9991 7.3258 34.8337L7.23304 34.7715C7.2443 34.7791 7.1746 34.7348 7.25288 34.784L7.22447 34.7618L7.16656 34.7186L6.93547 34.5457C6.81805 34.4403 6.74781 34.3776 6.6336 34.2657C6.19233 33.8285 5.77734 33.3157 5.46153 32.7596C5.14948 32.2035 4.93716 31.6101 4.87121 31.0719C4.85888 30.8071 4.84279 30.5504 4.89855 30.3299C4.9023 30.2267 4.94573 30.1386 4.96933 30.0462L4.97093 30.0429L5.00042 29.9667L5.05887 29.8149L5.11838 29.663L5.16771 29.5647C5.24117 29.4685 5.38861 29.2269 5.54571 29.0853C5.71353 28.9394 5.8776 28.7973 6.10118 28.7043C6.31726 28.6071 6.55425 28.5195 6.83038 28.4795C7.10007 28.4298 7.39443 28.4055 7.70273 28.4255C8.00835 28.4363 8.32684 28.4866 8.63996 28.5671L8.75792 28.5979L8.79009 28.6065C8.80242 28.6098 8.82172 28.6152 8.81207 28.613L9.14396 28.7195L9.47103 28.8259L9.68817 28.9221L9.90693 29.0151L10.1568 29.1388C10.3246 29.215 10.4881 29.308 10.6517 29.4036C10.9803 29.5895 11.3063 29.8035 11.6307 30.0392C12.2816 30.5099 12.9283 31.0767 13.6022 31.7166C14.2783 32.351 14.9754 33.0552 15.7496 33.761C15.9421 33.9371 16.1372 34.1144 16.3415 34.2906L16.6461 34.5565L16.8541 34.7245L16.8906 34.7532L16.9415 34.7921L17.0809 34.8926C17.1688 34.9537 17.2804 35.0331 17.3517 35.0763L17.5806 35.219C17.7329 35.3109 17.882 35.393 18.0321 35.4735C18.3291 35.6265 18.624 35.767 18.9141 35.8864C20.0786 36.3679 21.2266 36.6635 22.4308 36.8435C23.0335 36.9321 23.6485 36.9786 24.2881 36.9829C24.9289 36.9829 25.5894 36.9462 26.3057 36.8057C27.0194 36.6597 27.792 36.4436 28.6231 35.9264C28.8252 35.807 29.037 35.6416 29.2375 35.4789C29.3383 35.3882 29.4391 35.2963 29.5378 35.2001C29.5925 35.1434 29.518 35.2298 29.6793 35.0526L29.712 35.0169L29.7759 34.945L29.9056 34.7991L30.1254 34.5213C30.1941 34.4305 30.275 34.3252 30.3303 34.2436L30.4836 34.0112C31.2745 32.7709 31.7195 31.5561 32.0042 30.2229C32.1398 29.5549 32.2262 28.8573 32.2149 28.0812C32.2133 27.8894 32.1956 27.6813 32.1822 27.4819C32.1624 27.2749 32.1264 27.0545 32.0932 26.8421C32.0069 26.4632 32.061 26.7102 32.0396 26.6129L32.0272 26.5654L32.002 26.4714L31.9527 26.2811L31.928 26.1871L31.9152 26.1374L31.8825 26.0444C31.8396 25.9191 31.7935 25.7931 31.7447 25.6699C31.5425 25.1252 31.3377 24.8107 31.12 24.4362C30.89 24.106 30.6498 23.7682 30.3983 23.5002C30.1474 23.2024 29.897 22.9787 29.6434 22.7317C29.3968 22.5193 29.1421 22.2923 28.9046 22.1124L28.7228 21.9697L28.6317 21.8995L28.4799 21.7925L28.4397 21.7649L28.1159 21.5471L27.4692 21.1132L27.3883 21.0591L27.2837 20.9986L27.065 20.8754L26.6264 20.6333L26.1856 20.395C26.0403 20.3193 25.8854 20.229 25.7513 20.1761C24.6495 19.6773 23.53 19.2558 22.4448 18.9575C22.1735 18.8813 21.8979 18.798 21.6298 18.7283L20.833 18.5327C20.2963 18.3954 19.7902 18.2998 19.2717 18.1857C18.7682 18.0809 18.2664 17.9761 17.7645 17.8712L17.594 17.8366L17.4997 17.8193L17.3104 17.7858L16.9324 17.7188L16.178 17.5848C15.6761 17.4951 15.1748 17.4065 14.6746 17.3178C14.1722 17.2298 13.6853 17.1319 13.1508 17.073C12.1042 16.9466 11.0629 16.8201 10.0286 16.6948C9.49891 16.6267 9.02064 16.5872 8.56758 16.531C8.11344 16.4759 7.68021 16.4143 7.27218 16.337C6.86684 16.2576 6.48723 16.1635 6.14515 16.0608C5.80736 15.9555 5.52319 15.8296 5.31355 15.7117C5.10122 15.5918 4.92697 15.4226 4.92697 15.4226C4.88515 15.354 4.82992 15.2659 4.82992 15.2659C4.82992 15.2659 4.69427 14.9325 4.67229 14.8719C4.52591 14.3618 4.50447 13.6765 4.6117 13.1053L4.65567 12.8973L4.70928 12.7049L4.76933 12.5336L4.80258 12.4612L4.81705 12.4239L4.94305 12.2153L5.03635 12.0683C5.06423 12.0245 5.10712 11.9505 5.11141 11.9607C5.13661 11.944 5.15752 11.9245 5.17414 11.9013C5.1972 11.877 5.18755 11.8559 5.25189 11.8078C5.59021 11.4571 6.19877 11.1161 6.98319 10.7378C7.38049 10.5443 7.77619 10.353 8.16866 10.1622C8.59331 9.95527 8.89035 9.82773 9.24422 9.67966C9.95197 9.38892 10.6474 9.17924 11.3187 9.05116C12.6645 8.7896 13.9282 8.94416 15.141 9.43215C15.7544 9.66399 16.3169 10.0039 16.8981 10.3719C17.2058 10.5784 17.5109 10.7832 17.8117 10.9848C18.1147 11.1923 18.4262 11.3933 18.7345 11.5922C19.9757 12.3817 21.2454 13.107 22.6035 13.5333C23.2812 13.7468 23.9841 13.8668 24.6736 13.8938C25.3696 13.9062 26.0468 13.7922 26.6532 13.5766L26.7106 13.5582L26.7663 13.5404L26.7765 13.536C27.043 13.6576 27.3636 13.7749 27.7507 13.8841C30.1973 14.5715 30.2761 11.041 31.5393 8.19839C32.4101 6.23993 32.0867 5.06724 31.801 4.52682L32.2556 3.92751C32.7446 3.33089 34.1617 1.71992 34.8389 1.41675C34.9756 1.35623 35.0368 1.19572 34.9773 1.05954Z" fill="black" fill-opacity="0.72"/>
</svg>
